<svg width="65" height="65" viewBox="0 0 65 65" fill="none" xmlns="http://www.w3.org/2000/svg">
<path d="M32.6666 0.800049C15.0666 0.800049 0.666626 15.2258 0.666626 32.9928C0.666626 49.0571 12.3786 62.3904 27.6746 64.8V42.3101H19.5466V32.9928H27.6746V25.8924C27.6746 17.8282 32.4426 13.3944 39.7706 13.3944C43.2586 13.3944 46.9066 14.0049 46.9066 14.0049V21.9406H42.8746C38.9066 21.9406 37.6586 24.4145 37.6586 26.9527V32.9928H46.5546L45.1146 42.3101H37.6586V64.8C45.1992 63.6044 52.0656 59.7415 57.0183 53.9087C61.971 48.0759 64.6837 40.6575 64.6665 32.9928C64.6665 15.2258 50.2666 0.800049 32.6666 0.800049Z" fill="black"/>
</svg>
