<svg width="65" height="65" viewBox="0 0 65 65" fill="none" xmlns="http://www.w3.org/2000/svg">
<path d="M19.2266 0.666748H46.1066C56.3466 0.666748 64.6666 8.98675 64.6666 19.2267V46.1068C64.6666 51.0292 62.7112 55.75 59.2305 59.2307C55.7499 62.7113 51.029 64.6667 46.1066 64.6667H19.2266C8.98663 64.6667 0.666626 56.3468 0.666626 46.1068V19.2267C0.666626 14.3043 2.62205 9.58352 6.10272 6.10285C9.5834 2.62217 14.3042 0.666748 19.2266 0.666748ZM18.5866 7.06675C15.5313 7.06675 12.6012 8.28046 10.4408 10.4409C8.28034 12.6013 7.06663 15.5315 7.06663 18.5867V46.7467C7.06663 53.1147 12.2186 58.2668 18.5866 58.2668H46.7466C49.8019 58.2668 52.7321 57.053 54.8925 54.8926C57.0529 52.7322 58.2666 49.802 58.2666 46.7467V18.5867C58.2666 12.2187 53.1146 7.06675 46.7466 7.06675H18.5866ZM49.4666 11.8667C50.5275 11.8667 51.5449 12.2882 52.2951 13.0383C53.0452 13.7885 53.4666 14.8059 53.4666 15.8667C53.4666 16.9276 53.0452 17.945 52.2951 18.6952C51.5449 19.4453 50.5275 19.8667 49.4666 19.8667C48.4058 19.8667 47.3883 19.4453 46.6382 18.6952C45.8881 17.945 45.4666 16.9276 45.4666 15.8667C45.4666 14.8059 45.8881 13.7885 46.6382 13.0383C47.3883 12.2882 48.4058 11.8667 49.4666 11.8667ZM32.6666 16.6667C36.9101 16.6667 40.9798 18.3525 43.9803 21.353C46.9809 24.3536 48.6666 28.4233 48.6666 32.6667C48.6666 36.9102 46.9809 40.9799 43.9803 43.9805C40.9798 46.981 36.9101 48.6667 32.6666 48.6667C28.4232 48.6667 24.3535 46.981 21.3529 43.9805C18.3523 40.9799 16.6666 36.9102 16.6666 32.6667C16.6666 28.4233 18.3523 24.3536 21.3529 21.353C24.3535 18.3525 28.4232 16.6667 32.6666 16.6667ZM32.6666 23.0667C30.1205 23.0667 27.6787 24.0782 25.8784 25.8785C24.0781 27.6789 23.0666 30.1207 23.0666 32.6667C23.0666 35.2128 24.0781 37.6546 25.8784 39.455C27.6787 41.2553 30.1205 42.2668 32.6666 42.2668C35.2127 42.2668 37.6545 41.2553 39.4549 39.455C41.2552 37.6546 42.2666 35.2128 42.2666 32.6667C42.2666 30.1207 41.2552 27.6789 39.4549 25.8785C37.6545 24.0782 35.2127 23.0667 32.6666 23.0667Z" fill="black"/>
</svg>
