<svg width="65" height="65" viewBox="0 0 65 65" fill="none" xmlns="http://www.w3.org/2000/svg">
<path d="M32.7953 0.666748C15.2355 0.666748 0.923913 14.9067 0.923913 32.3787C0.923913 37.9787 2.40331 43.4188 5.16914 48.2188L0.666626 64.6667L17.551 60.2508C22.2144 62.7788 27.4566 64.1227 32.7953 64.1227C50.3551 64.1227 64.6666 49.8827 64.6666 32.4107C64.6666 23.9307 61.3541 15.9627 55.34 9.97875C49.3259 3.96275 41.3179 0.666748 32.7953 0.666748ZM32.8274 6.01075C39.9028 6.01075 46.5279 8.76275 51.545 13.7547C56.5299 18.7467 59.2958 25.3707 59.2958 32.4107C59.2958 46.9387 47.3963 58.7467 32.7953 58.7467C28.0355 58.7467 23.3722 57.4987 19.3199 55.0667L18.3551 54.5227L8.3209 57.1467L10.9902 47.4188L10.347 46.3948C7.70984 42.2668 6.29477 37.3707 6.29477 32.3787C6.32693 17.8507 18.1943 6.01075 32.8274 6.01075ZM21.5068 17.7227C20.9923 17.7227 20.1239 17.9147 19.3842 18.7147C18.6767 19.5147 16.5862 21.4667 16.5862 25.3387C16.5862 29.2427 19.4485 32.9868 19.8023 33.5308C20.2526 34.0747 25.4626 42.0747 33.4706 45.4667C35.3681 46.3307 36.8475 46.8107 38.0053 47.1628C39.9028 47.7708 41.6395 47.6747 43.0224 47.4827C44.5661 47.2587 47.7179 45.5627 48.3933 43.7067C49.0686 41.8507 49.0686 40.2827 48.8757 39.9308C48.6505 39.6107 48.136 39.4187 47.3319 39.0667C46.5279 38.6187 42.6043 36.6987 41.8968 36.4427C41.1571 36.1867 40.7068 36.0588 40.0958 36.8267C39.5812 37.6268 38.0375 39.4188 37.5872 39.9308C37.1048 40.4748 36.6546 40.5387 35.8827 40.1548C35.0465 39.7388 32.4737 38.9067 29.4505 36.2187C27.0706 34.1067 25.4948 31.5147 25.0124 30.7148C24.6264 29.9467 24.9802 29.4667 25.3661 29.1147C25.7199 28.7627 26.2345 28.1867 26.5561 27.7067C26.9742 27.2587 27.1028 26.9067 27.3601 26.3947C27.6174 25.8507 27.4887 25.4027 27.2958 25.0187C27.1028 24.6667 25.4948 20.6987 24.8194 19.1307C24.1762 17.5947 23.533 17.7867 23.0184 17.7547C22.5681 17.7547 22.0536 17.7227 21.5068 17.7227Z" fill="black"/>
</svg>
