<svg width="64" height="65" viewBox="0 0 64 65" fill="none" xmlns="http://www.w3.org/2000/svg">
<path d="M63.9894 26.1432C63.3782 26.1941 62.7648 26.2207 62.1507 26.2231C55.4159 26.2238 49.1345 23.3189 45.4453 18.4973V44.8055C45.4453 55.5444 35.2719 64.25 22.7226 64.25C10.1733 64.25 0 55.5444 0 44.8055C0 34.0667 10.1733 25.361 22.7226 25.361C23.197 25.361 23.6607 25.3975 24.127 25.4227V35.0046C23.6607 34.9568 23.2023 34.8838 22.7226 34.8838C16.3177 34.8838 11.1254 39.3269 11.1254 44.8078C11.1254 50.2887 16.3177 54.7317 22.7226 54.7317C29.1287 54.7317 34.7861 50.4129 34.7861 44.931L34.8979 0.25H45.6104C46.6205 8.47051 54.3664 14.8915 64 15.494V26.1432" fill="black"/>
</svg>
